<?xml version="1.0" standalone="no"?>
<!DOCTYPE svg PUBLIC "-//W3C//DTD SVG 20010904//EN"
 "http://www.w3.org/TR/2001/REC-SVG-20010904/DTD/svg10.dtd">
<svg version="1.0" xmlns="http://www.w3.org/2000/svg"
 width="512.000000pt" height="512.000000pt" viewBox="0 0 512.000000 512.000000"
 preserveAspectRatio="xMidYMid meet">

<g transform="translate(0.000000,512.000000) scale(0.100000,-0.100000)"
fill="#000000" stroke="none">
<path d="M3014 4192 c-69 -45 -119 -103 -144 -168 -16 -44 -21 -48 -87 -74
-115 -44 -207 -120 -269 -221 -41 -69 -55 -106 -100 -274 -43 -161 -94 -269
-171 -360 -92 -110 -183 -172 -418 -289 -183 -91 -220 -113 -283 -171 -94 -87
-141 -177 -149 -286 -8 -114 32 -244 102 -328 29 -33 33 -35 53 -23 10 7 4 30
-23 105 l-35 97 103 80 102 81 70 -6 c39 -3 81 -7 95 -10 21 -4 21 -4 -4 6
-27 11 -28 14 -22 56 3 24 19 78 36 119 92 229 282 400 517 465 99 28 249 30
343 5 160 -43 318 -168 392 -311 36 -67 37 -68 32 -30 -23 165 -95 335 -196
457 -35 42 -89 107 -120 145 -32 38 -72 100 -89 137 -40 87 -45 193 -11 269
25 55 42 61 42 13 0 -83 35 -125 150 -178 115 -53 160 -99 160 -162 0 -38 10
-55 41 -71 40 -21 94 -19 117 5 10 11 30 42 44 70 l26 49 -54 129 c-29 70 -60
160 -69 200 -18 88 -40 133 -102 209 -27 32 -54 65 -60 74 -11 13 -8 35 16
120 16 57 28 105 27 106 -2 2 -30 -14 -62 -35z m66 -458 c10 -11 20 -31 24
-45 l6 -27 -49 26 c-45 24 -81 64 -81 91 0 13 77 -21 100 -45z"/>
<path d="M2641 4050 c-193 -51 -317 -144 -468 -351 -81 -110 -136 -161 -213
-197 -63 -30 -155 -40 -215 -23 -37 9 -38 9 -20 -5 60 -46 99 -59 185 -59 74
0 93 4 150 31 36 17 83 46 103 64 21 18 40 31 42 28 10 -9 -78 -133 -139 -196
-82 -86 -154 -136 -323 -225 -171 -89 -230 -133 -290 -212 -74 -97 -113 -200
-128 -335 l-5 -55 19 47 c47 116 131 200 261 261 368 172 436 213 542 326 88
94 130 171 184 340 61 192 102 269 189 357 73 74 158 124 250 147 38 10 49 18
60 45 l14 32 -62 -1 c-34 0 -95 -9 -136 -19z"/>
<path d="M3110 4048 c-25 -6 -47 -12 -49 -14 -2 -2 8 -17 23 -34 l26 -32 35
35 c56 56 49 64 -35 45z"/>
<path d="M2505 2787 c-78 -36 -78 -154 0 -192 43 -20 63 -19 103 5 39 24 56
62 48 109 -11 69 -86 107 -151 78z"/>
<path d="M2470 2547 c-19 -6 -56 -32 -81 -57 -54 -54 -77 -115 -80 -207 -2
-59 -1 -63 32 -90 82 -67 162 -171 194 -251 l17 -41 41 82 c31 63 60 101 124
165 93 94 96 102 69 215 -35 149 -173 229 -316 184z"/>
<path d="M1940 2319 c30 -11 59 -18 65 -16 10 4 -91 38 -109 36 -6 0 14 -9 44
-20z"/>
<path d="M2060 2275 c14 -7 27 -11 30 -9 6 7 -22 24 -40 23 -9 0 -5 -6 10 -14z"/>
<path d="M2120 2251 c0 -5 7 -11 15 -15 8 -3 15 -1 15 3 0 5 -7 11 -15 15 -8
3 -15 1 -15 -3z"/>
<path d="M2240 2181 c0 -6 4 -13 10 -16 6 -3 7 1 4 9 -7 18 -14 21 -14 7z"/>
<path d="M2276 2157 c3 -10 9 -15 12 -12 3 3 0 11 -7 18 -10 9 -11 8 -5 -6z"/>
<path d="M2380 2053 c81 -87 87 -92 70 -68 -36 50 -113 135 -123 135 -5 0 18
-30 53 -67z"/>
<path d="M1655 1979 c-62 -9 -144 -32 -183 -53 -18 -9 15 -12 165 -11 116 0
217 -5 263 -14 103 -18 249 -66 345 -111 82 -39 205 -122 205 -139 0 -5 19
-16 42 -26 68 -27 116 -14 191 51 70 61 219 140 340 178 149 48 238 61 439 61
185 0 187 0 153 18 -90 46 -251 65 -399 47 -143 -17 -237 -44 -355 -102 -81
-40 -120 -67 -179 -124 -43 -41 -89 -76 -104 -80 -44 -9 -87 5 -111 38 -34 47
-152 135 -231 173 -174 83 -400 120 -581 94z"/>
<path d="M868 1524 c-5 -4 -8 -133 -8 -286 l0 -278 38 0 37 0 0 102 0 103 70
3 70 2 67 -105 c67 -105 67 -105 108 -105 22 0 40 2 40 5 0 3 -31 51 -70 107
-38 56 -70 105 -70 110 0 4 6 8 14 8 21 0 74 47 91 81 8 15 15 51 15 80 0 66
-29 119 -84 150 -36 21 -56 24 -176 27 -74 2 -138 0 -142 -4z m267 -68 c81
-34 87 -165 9 -206 -18 -10 -57 -15 -118 -15 l-91 0 -3 104 c-1 58 0 111 2
118 7 18 156 18 201 -1z"/>
<path d="M2268 1511 c-20 -16 -21 -22 -10 -45 21 -47 88 -27 80 25 -4 32 -42
42 -70 20z"/>
<path d="M3773 1438 c-19 -9 -23 -19 -23 -55 0 -39 -2 -43 -25 -43 -20 0 -25
-5 -25 -25 0 -20 5 -25 25 -25 l25 0 0 -132 c0 -114 3 -138 20 -165 32 -54
140 -60 140 -8 0 22 -5 25 -33 25 -53 0 -57 11 -57 152 l0 128 45 0 c41 0 45
2 45 25 0 23 -4 25 -45 25 l-45 0 0 55 c0 58 -5 63 -47 43z"/>
<path d="M1442 1329 c-83 -42 -127 -138 -103 -226 26 -100 92 -148 201 -148
84 0 135 26 174 88 61 98 27 231 -73 284 -58 30 -139 31 -199 2z m183 -63 c12
-8 29 -30 39 -49 47 -101 -16 -207 -124 -207 -106 0 -169 102 -126 205 32 75
135 101 211 51z"/>
<path d="M1935 1331 c-77 -36 -115 -95 -115 -181 0 -86 38 -145 115 -181 68
-31 176 -19 226 27 19 17 19 18 -2 40 l-22 23 -29 -24 c-23 -20 -41 -25 -83
-25 -46 0 -59 5 -90 31 -68 60 -68 158 2 219 34 30 40 32 94 28 43 -3 65 -10
82 -26 l23 -22 22 23 c21 23 22 24 4 40 -52 47 -157 60 -227 28z"/>
<path d="M2570 1339 c-13 -6 -33 -17 -42 -26 -17 -15 -18 -15 -18 5 0 18 -6
22 -35 22 l-35 0 0 -190 0 -190 35 0 35 0 0 134 c0 120 2 136 21 160 38 48
124 51 162 5 14 -18 17 -43 17 -160 l0 -139 35 0 35 0 0 138 c0 162 -14 208
-73 235 -39 19 -98 21 -137 6z"/>
<path d="M2965 1339 c-16 -5 -40 -17 -53 -27 -21 -16 -21 -19 -6 -40 l16 -23
35 22 c53 33 119 31 150 -5 12 -15 23 -38 23 -52 0 -23 -3 -24 -62 -24 -130 0
-198 -42 -198 -123 0 -54 26 -91 76 -107 48 -16 119 -7 154 19 28 20 29 20 35
1 5 -15 15 -20 40 -20 33 0 34 1 25 26 -6 14 -10 80 -10 147 0 136 -7 159 -59
194 -36 25 -108 30 -166 12z m162 -240 c-9 -70 -73 -112 -142 -95 -33 8 -59
49 -51 81 9 36 51 54 130 55 l69 0 -6 -41z"/>
<path d="M3407 1326 c-46 -31 -47 -31 -47 -6 0 16 -7 20 -30 20 l-30 0 0 -190
0 -190 33 0 32 0 -3 114 c-4 127 8 173 51 201 50 33 124 17 146 -32 6 -13 11
-80 11 -153 l0 -130 35 0 35 0 0 123 c-1 148 -10 191 -49 230 -25 26 -40 31
-88 35 -50 3 -63 0 -96 -22z"/>
<path d="M4065 1336 c-17 -7 -45 -29 -62 -49 -90 -103 -59 -264 62 -318 68
-31 169 -20 221 24 25 22 25 23 6 40 -19 17 -21 17 -53 -2 -42 -26 -119 -28
-160 -4 -27 16 -59 66 -59 92 0 8 48 11 150 11 l150 0 0 48 c-1 98 -76 172
-175 171 -27 0 -64 -6 -80 -13z m118 -50 c39 -16 63 -42 72 -78 l7 -28 -121 0
c-135 0 -138 2 -98 61 13 19 38 39 57 46 45 15 45 15 83 -1z"/>
<path d="M2260 1150 l0 -190 35 0 35 0 0 190 0 190 -35 0 -35 0 0 -190z"/>
</g>
</svg>
